<svg width="166" height="50" viewBox="0 0 166 50" fill="none" xmlns="http://www.w3.org/2000/svg">
<path d="M137.22 49.1762C133.86 49.1762 131.137 46.4524 131.137 43.0925V26.5526C131.137 23.4263 132.045 20.9548 133.862 19.1381C135.678 17.3215 138.213 16.4132 141.466 16.4132H147.391C149.929 16.4132 151.986 18.4702 151.986 21.0076V21.0076C151.986 23.545 149.929 25.602 147.391 25.602H145.712C144.994 25.602 144.402 25.8344 143.938 26.2991C143.515 26.7216 143.304 27.2919 143.304 28.0101V43.0925C143.304 46.4524 140.58 49.1762 137.22 49.1762V49.1762Z" fill="white"/>
<path d="M119.74 49.1762C116.397 49.1762 113.688 46.4666 113.688 43.1242V8.96705C113.688 5.62464 116.397 2.91508 119.74 2.91508V2.91508C123.082 2.91508 125.792 5.62464 125.792 8.96705V43.1242C125.792 46.4666 123.082 49.1762 119.74 49.1762V49.1762Z" fill="white"/>
<path d="M90.7181 50C87.1271 50 83.9585 49.2607 81.2124 47.782C78.4663 46.3033 76.3328 44.2332 74.8119 41.5716C73.291 38.91 72.5305 35.7837 72.5305 32.1926V8.99873C72.5305 5.63882 75.2543 2.91508 78.6142 2.91508V2.91508C81.9741 2.91508 84.6978 5.63883 84.6978 8.99873V18.6891C84.6978 18.8321 84.8138 18.948 84.9568 18.948V18.948C85.0336 18.948 85.1063 18.9137 85.1563 18.8554C85.7724 18.136 86.4856 17.5331 87.296 17.0469C88.141 16.5399 89.0704 16.1808 90.0844 15.9696C91.0983 15.7161 92.1756 15.5894 93.3163 15.5894C96.2314 15.5894 98.8719 16.2864 101.238 17.6806C103.604 19.0748 105.462 21.0182 106.814 23.5108C108.209 26.0034 108.906 28.9396 108.906 32.3194C108.906 34.9387 108.462 37.3257 107.575 39.4804C106.73 41.635 105.505 43.515 103.899 45.1204C102.294 46.6836 100.372 47.8876 98.1325 48.7326C95.9357 49.5775 93.4642 50 90.7181 50ZM90.7181 39.3536C91.8588 39.3536 92.8516 39.079 93.6965 38.5298C94.5837 37.9806 95.2597 37.2201 95.7244 36.2484C96.2314 35.2345 96.4849 34.0938 96.4849 32.8264C96.4849 31.6012 96.2314 30.5239 95.7244 29.5944C95.2597 28.665 94.5837 27.9256 93.6965 27.3764C92.8516 26.8272 91.8588 26.5526 90.7181 26.5526C89.6197 26.5526 88.6268 26.8272 87.7396 27.3764C86.8524 27.9256 86.1554 28.665 85.6484 29.5944C85.1837 30.5239 84.9513 31.6012 84.9513 32.8264C84.9513 34.0938 85.1837 35.2345 85.6484 36.2484C86.1554 37.2201 86.8524 37.9806 87.7396 38.5298C88.6268 39.079 89.6197 39.3536 90.7181 39.3536Z" fill="white"/>
<path d="M61.1652 49.1762C57.8053 49.1762 55.0816 46.4524 55.0816 43.0925V22.4335C55.0816 19.0736 57.8053 16.3498 61.1652 16.3498V16.3498C64.5251 16.3498 67.2489 19.0736 67.2489 22.4335V43.0925C67.2489 46.4524 64.5251 49.1762 61.1652 49.1762V49.1762ZM61.1652 12.9911C59.3908 12.9911 57.8699 12.3574 56.6025 11.09C55.3351 9.78031 54.7014 8.2594 54.7014 6.52725C54.7014 4.75285 55.3351 3.23194 56.6025 1.96451C57.8699 0.654836 59.3908 0 61.1652 0C62.9396 0 64.4605 0.654836 65.728 1.96451C66.9954 3.23194 67.6291 4.75285 67.6291 6.52725C67.6291 8.2594 66.9954 9.78031 65.728 11.09C64.4605 12.3574 62.9396 12.9911 61.1652 12.9911Z" fill="white"/>
<path d="M33.967 50C31.2632 50 28.7072 49.4508 26.2991 48.3523C23.9332 47.2117 22.011 45.564 20.5323 43.4094C19.0537 41.2548 18.3143 38.6354 18.3143 35.5513V18.3777C18.3143 17.8285 18.1876 17.3637 17.9341 16.9835C17.7229 16.561 17.4271 16.2442 17.0469 16.0329C16.6667 15.8217 16.2231 15.7161 15.7161 15.7161C15.2091 15.7161 14.7444 15.8217 14.3219 16.0329C13.9417 16.2442 13.6248 16.561 13.3714 16.9835C13.1601 17.3637 13.0545 17.8285 13.0545 18.3777V42.6489C13.0545 46.2538 10.1322 49.1762 6.52725 49.1762V49.1762C2.92235 49.1762 0 46.2538 0 42.6489V18.5044C0 15.4204 0.718209 12.801 2.15463 10.6464C3.63329 8.49175 5.57668 6.8441 7.98479 5.70341C10.3929 4.56273 12.97 3.99239 15.7161 3.99239C18.4622 3.99239 21.0182 4.56273 23.384 5.70341C25.7499 6.8441 27.6722 8.49175 29.1508 10.6464C30.6295 12.801 31.3688 15.4204 31.3688 18.5044V35.6781C31.3688 36.2273 31.4956 36.7131 31.7491 37.1356C32.0025 37.5581 32.3194 37.8749 32.6996 38.0862C33.0798 38.2974 33.4812 38.403 33.9037 38.403C34.3684 38.403 34.812 38.2974 35.2345 38.0862C35.6569 37.8749 35.9949 37.5581 36.2484 37.1356C36.5019 36.7131 36.6286 36.2273 36.6286 35.6781V11.3118C36.6286 7.72437 39.5368 4.81621 43.1242 4.81621V4.81621C46.7116 4.81621 49.6198 7.72438 49.6198 11.3118V35.5513C49.6198 38.6354 48.8804 41.2548 47.4018 43.4094C45.9231 45.564 43.9797 47.2117 41.5716 48.3523C39.2057 49.4508 36.6709 50 33.967 50Z" fill="white"/>
<path d="M158.555 47.7945C156.78 47.7945 155.26 47.1608 153.992 45.8934C152.725 44.5837 152.091 43.0628 152.091 41.3307C152.091 39.5563 152.725 38.0354 153.992 36.7679C155.26 35.4583 156.78 34.8034 158.555 34.8034C160.329 34.8034 161.85 35.4583 163.118 36.7679C164.385 38.0354 165.019 39.5563 165.019 41.3307C165.019 43.0628 164.385 44.5837 163.118 45.8934C161.85 47.1608 160.329 47.7945 158.555 47.7945Z" fill="white"/>
</svg>
