<svg width="14" height="11" viewBox="0 0 14 11" fill="none" xmlns="http://www.w3.org/2000/svg">
<path d="M0.814692 2.71869C0.690675 2.31677 0.253756 0.731423 0 0C4.8187 0.0552017 7.34112 3.47311 8 5.17516C6.57896 6.224 6.0089 7.01238 6 7.5C5.26277 4.30934 3.05843 2.32307 1.94992 1.50425C4.96294 4.57346 5.89316 8.50495 6 10C1.64608 11.4076 1.10851 3.67092 0.814692 2.71869Z" fill="white"/>
<path d="M13.9706 5.18987C13.9805 5.19187 13.9903 5.19388 14 5.19589C13.9949 5.18558 13.985 5.18378 13.9706 5.18987C12.5772 4.90762 9.37297 4.7308 7.45938 6.24479C5.05041 8.15071 6.24089 9.94151 6.71708 10.2997C7.25396 9.20813 9.08963 6.77947 12.1373 5.79709C10.8908 6.3855 8.13165 8.16606 7.06722 10.5811C7.66479 11.0373 9.2689 11.5072 10.9048 9.73684C11.8446 8.21854 13.6996 5.30461 13.9706 5.18987Z" fill="white"/>
</svg>
