<svg width="50" height="50" viewBox="0 0 50 50" fill="none" xmlns="http://www.w3.org/2000/svg">
<g clip-path="url(#clip0_204_54)">
<path fill-rule="evenodd" clip-rule="evenodd" d="M29.4444 2.77778C29.4444 0.323179 27.4546 0 25 0C22.5454 0 20.5555 0.323179 20.5555 2.77778V4.35756C18.0886 4.88617 15.7815 5.84581 13.717 7.15382L12.4292 5.86607C10.6935 4.1304 8.95789 5.20881 7.22223 6.94447C5.48656 8.68014 4.40815 10.4158 6.14382 12.1515L7.37203 13.3797C5.9523 15.5291 4.91514 17.9533 4.35755 20.5555H2.77778C0.323177 20.5555 0 22.5454 0 25C0 27.4546 0.323177 29.4444 2.77778 29.4444H4.35754C4.88615 31.9114 5.84578 34.2185 7.15378 36.283L6.1438 37.293C4.40813 39.0287 5.48656 40.7643 7.22222 42.5C8.95789 44.2356 10.6935 45.3141 12.4292 43.5784L13.3796 42.628C15.529 44.0477 17.9533 45.0849 20.5555 45.6425V47.2222C20.5555 49.6768 22.5454 50 25 50C27.4546 50 29.4444 49.6768 29.4444 47.2222V45.6425C32.0466 45.0849 34.471 44.0477 36.6203 42.628L37.5708 43.5784C39.3065 45.3141 40.7643 43.9579 42.5 42.2222C44.2356 40.4866 45.5918 39.0287 43.8562 37.293L42.8462 36.283C44.1542 34.2185 45.1138 31.9114 45.6425 29.4444H47.2222C49.6768 29.4444 50 27.4546 50 25C50 22.5454 49.6768 20.5555 47.2222 20.5555H45.6424C45.0849 17.9533 44.0477 15.529 42.6279 13.3796L43.8562 12.1514C45.5918 10.4158 44.5134 8.68007 42.7778 6.94441C41.0421 5.20874 39.3064 4.13037 37.5708 5.86603L36.283 7.1538C34.2185 5.8458 31.9114 4.88617 29.4444 4.35756V2.77778ZM42.1111 25C42.1111 34.4502 34.4502 42.1111 25 42.1111C15.5498 42.1111 7.88889 34.4502 7.88889 25C7.88889 15.5498 15.5498 7.8889 25 7.8889C34.4502 7.8889 42.1111 15.5498 42.1111 25Z" fill="white"/>
</g>
<defs>
<clipPath id="clip0_204_54">
<rect width="50" height="50" fill="white"/>
</clipPath>
</defs>
</svg>
