<svg width="50" height="50" viewBox="0 0 50 50" fill="none" xmlns="http://www.w3.org/2000/svg">
<path d="M31.25 38.6719H18.75C17.6719 38.6719 16.7969 39.5469 16.7969 40.625V43.75C16.7969 44.2891 17.0156 44.7781 17.3688 45.1328L20.4937 48.2578C20.8469 48.611 21.3344 48.8281 21.8734 48.8281H21.875H28.125C28.125 48.8281 28.1266 48.8281 28.1281 48.8281C28.6672 48.8281 29.1547 48.6094 29.5078 48.2578L32.6328 45.1328C32.9859 44.7797 33.2031 44.2922 33.2031 43.7531C33.2031 43.7516 33.2031 43.7516 33.2031 43.75V40.625C33.2016 39.5469 32.3281 38.6735 31.25 38.6719ZM29.2969 42.9406L27.3156 44.9219H22.6828L20.7016 42.9406V42.5781H29.2953L29.2969 42.9406ZM39.6516 9.93439C36.6531 4.85314 31.3266 1.42345 25.1781 1.11564L25.1359 1.11407H25.025C18.8781 1.37189 13.5594 4.69533 10.5344 9.58751L10.4906 9.66407C8.6625 12.3 7.57031 15.5656 7.57031 19.0875C7.57031 19.1063 7.57031 19.1266 7.57031 19.1453V19.1422C7.85781 22.7266 9.0125 25.9906 10.8219 28.7922L10.7719 28.711C11.275 29.5781 11.8094 30.4328 12.3438 31.2828C13.3922 32.8313 14.3969 34.611 15.2531 36.4735L15.35 36.7094C15.6531 37.4203 16.3453 37.9094 17.1516 37.9094C17.4219 37.9094 17.6813 37.8547 17.9172 37.7547L17.9047 37.7594C18.6156 37.4563 19.1047 36.7625 19.1047 35.9547C19.1047 35.6828 19.0484 35.4235 18.9484 35.1891L18.9531 35.2016C17.9078 32.8875 16.8063 30.9219 15.5578 29.0625L15.6516 29.211C15.1406 28.3938 14.6297 27.5797 14.1484 26.75C12.6813 24.5672 11.7156 21.9328 11.4766 19.0922L11.4719 19.0328C11.5016 16.3219 12.3547 13.8172 13.7922 11.7485L13.7641 11.7906C16.1266 7.89845 20.2438 5.27501 24.9906 5.02189L25.025 5.02032H25.1063C29.9047 5.35157 34.0078 8.0422 36.2969 11.9313L36.3328 11.9969C37.6828 14.0172 38.4859 16.5016 38.4859 19.1734C38.4859 19.2563 38.4859 19.3406 38.4828 19.4234V19.4109C38.1391 22.2844 37.1484 24.8734 35.6594 27.1016L35.7 27.0375C35.2516 27.7985 34.7813 28.55 34.3109 29.2969C33.1922 30.9625 32.1016 32.8875 31.1547 34.8922L31.0391 35.1656C30.9344 35.3969 30.8734 35.6672 30.8734 35.9516C30.8734 37.0297 31.7484 37.9047 32.8266 37.9047C33.6266 37.9047 34.3141 37.4235 34.6172 36.7344L34.6219 36.7219C35.5984 34.6438 36.5969 32.8906 37.7125 31.2219L37.6188 31.3719C38.1078 30.5938 38.5953 29.8125 39.0625 29.025C40.8297 26.3563 42.0172 23.1563 42.375 19.7109L42.3828 19.6203C42.3875 19.4672 42.3906 19.2875 42.3906 19.1063C42.3906 15.6938 41.3687 12.5188 39.6125 9.87189L39.6516 9.93439ZM23.6547 8.88595C23.3438 8.20157 22.6656 7.73439 21.8797 7.73439C21.5859 7.73439 21.3094 7.79845 21.0594 7.91564L21.0719 7.91095C17.2234 10.1219 14.4859 13.8938 13.7109 18.3406L13.6984 18.4297C13.6813 18.525 13.6719 18.6359 13.6719 18.7484C13.6719 19.7125 14.3703 20.5125 15.2891 20.6719L15.3 20.6734C15.3984 20.6906 15.5109 20.7016 15.6266 20.7016C16.5875 20.7 17.3859 20.0047 17.5484 19.0906L17.55 19.0781C18.1219 15.8484 20.0109 13.1453 22.6312 11.4969L22.6781 11.4703C23.3609 11.1578 23.8266 10.4797 23.8266 9.6922C23.8266 9.40001 23.7625 9.12345 23.6469 8.87501L23.6516 8.88751L23.6547 8.88595Z" fill="white"/>
</svg>
