<svg width="50" height="50" viewBox="0 0 50 50" fill="none" xmlns="http://www.w3.org/2000/svg">
<path d="M35.3776 13.25H42.6131C43.0508 13.2504 43.4726 13.4118 43.797 13.7027C44.1214 13.9937 44.3253 14.3936 44.369 14.825L45.4466 25.5H41.8924L41.0092 16.75H35.3776V22C35.3776 22.4641 35.1915 22.9092 34.8603 23.2374C34.529 23.5656 34.0797 23.75 33.6112 23.75C33.1427 23.75 32.6934 23.5656 32.3621 23.2374C32.0308 22.9092 31.8447 22.4641 31.8447 22V16.75H17.7129V22C17.7129 22.4641 17.5267 22.9092 17.1955 23.2374C16.8642 23.5656 16.4149 23.75 15.9464 23.75C15.4779 23.75 15.0286 23.5656 14.6973 23.2374C14.366 22.9092 14.1799 22.4641 14.1799 22V16.75H8.54483L5.71846 44.75H24.7788V48.25H3.76474C3.51801 48.2498 3.27407 48.1983 3.04863 48.099C2.82319 47.9997 2.62126 47.8546 2.45584 47.6733C2.29042 47.4919 2.16518 47.2783 2.0882 47.0461C2.01121 46.8138 1.98418 46.5682 2.00885 46.325L5.18852 14.825C5.23228 14.3936 5.43611 13.9937 5.76051 13.7027C6.08491 13.4118 6.50678 13.2504 6.9444 13.25H14.1799V12.0285C14.1799 5.9595 18.8999 1 24.7788 1C30.6576 1 35.3776 5.9595 35.3776 12.0285V13.2535V13.25ZM31.8447 13.25V12.0285C31.8447 7.8495 28.658 4.5 24.7788 4.5C20.8996 4.5 17.7129 7.8495 17.7129 12.0285V13.2535H31.8447V13.25ZM42.9629 39.71L38.9106 35.699V48.25C38.9106 48.7141 38.7245 49.1592 38.3932 49.4874C38.0619 49.8156 37.6126 50 37.1441 50C36.6756 50 36.2263 49.8156 35.895 49.4874C35.5638 49.1592 35.3776 48.7141 35.3776 48.25V35.699L31.3289 39.71C31.1659 39.8771 30.971 40.0105 30.7555 40.1022C30.54 40.1939 30.3082 40.2422 30.0736 40.2442C29.8391 40.2462 29.6065 40.2019 29.3894 40.1139C29.1723 40.0259 28.975 39.896 28.8092 39.7317C28.6433 39.5674 28.5122 39.372 28.4233 39.1569C28.3345 38.9418 28.2898 38.7114 28.2919 38.479C28.2939 38.2467 28.3426 38.017 28.4352 37.8035C28.5278 37.59 28.6624 37.3969 28.8311 37.2355L35.897 30.2355C36.2283 29.9074 36.6775 29.7231 37.1459 29.7231C37.6143 29.7231 38.0635 29.9074 38.3948 30.2355L45.4607 37.2355C45.6294 37.3969 45.764 37.59 45.8566 37.8035C45.9492 38.017 45.9979 38.2467 45.9999 38.479C46.002 38.7114 45.9573 38.9418 45.8685 39.1569C45.7796 39.372 45.6485 39.5674 45.4826 39.7317C45.3167 39.896 45.1195 40.0259 44.9024 40.1139C44.6853 40.2019 44.4527 40.2462 44.2182 40.2442C43.9836 40.2422 43.7518 40.1939 43.5363 40.1022C43.3208 40.0105 43.1259 39.8771 42.9629 39.71Z" fill="white"/>
</svg>
